<svg id="Capa_1" enable-background="new 0 0 512 512" height="512" viewBox="0 0 512 512" width="512" xmlns="http://www.w3.org/2000/svg"><g><g><g><path d="m502 155.5v201l-131.4 145.5h-229.2l-131.4-145.5v-201l131.4-145.5h229.2z" fill="#eefaff"/><path d="m442 178.59v154.82l-98.06 108.59h-175.88l-98.06-108.59v-154.82l98.06-108.59h175.88z" fill="#ff7d97"/></g></g><g><path d="m351.362 448.702 98.06-108.59c1.659-1.838 2.578-4.226 2.578-6.702v-154.82c0-2.476-.919-4.864-2.578-6.702l-98.06-108.59c-1.896-2.1-4.593-3.298-7.422-3.298h-175.88c-2.829 0-5.526 1.198-7.422 3.298l-98.06 108.59c-1.659 1.838-2.578 4.226-2.578 6.702v154.82c0 2.476.919 4.864 2.578 6.702l98.06 108.59c1.896 2.1 4.593 3.298 7.422 3.298h175.88c2.829 0 5.526-1.198 7.422-3.298zm-178.859-16.702-92.503-102.437v-147.126l92.503-102.437h166.993l92.504 102.437v147.126l-92.503 102.437z"/><path d="m147.242 247.487c-9.481-3.498-18.311-7.305-21.075-8.514-1.961-1.603-1.894-3.821-1.761-4.75.188-1.313 1.146-4.522 5.962-5.973 10.771-3.247 20.785 4.646 21.08 4.882 4.229 3.505 10.499 2.945 14.036-1.265 3.554-4.228 3.007-10.536-1.22-14.089-.738-.62-18.313-15.11-39.664-8.679-10.826 3.261-18.486 11.799-19.991 22.281-1.413 9.842 2.854 19.311 11.135 24.71.442.288.906.541 1.387.755.45.201 11.145 4.961 23.189 9.404 2.599.958 11 4.53 9.982 10.23-.752 4.216-5.918 8.576-13.261 8.576-7.629 0-14.968-3.072-19.632-8.219-3.709-4.092-10.032-4.403-14.125-.694-4.092 3.708-4.403 10.033-.694 14.125 8.517 9.398 21.074 14.788 34.452 14.788 16.5 0 30.357-10.54 32.95-25.061 1.953-10.936-2.998-25.222-22.75-32.507z"/><path d="m224.92 207h-43c-5.523 0-10 4.477-10 10s4.477 10 10 10h10v68c0 5.523 4.477 10 10 10s10-4.477 10-10v-68h13c5.523 0 10-4.477 10-10s-4.477-10-10-10z"/><path d="m378.533 207h-20.613c-5.523 0-10 4.477-10 10v77c0 5.523 4.477 10 10 10s10-4.477 10-10v-24h10.51c8.364.142 16.645-3.131 22.686-9.035 6.097-5.958 9.454-13.88 9.454-22.305 0-17.388-14.354-31.591-32.037-31.66zm8.604 39.662c-2.278 2.226-5.253 3.426-8.375 3.341-.077-.001-.153-.002-.229-.002h-10.613v-23h10.574c6.546.026 12.076 5.365 12.076 11.66 0 2.995-1.219 5.837-3.433 8.001z"/><path d="m281.42 207c-26.743 0-48.5 21.757-48.5 48.5s21.757 48.5 48.5 48.5 48.5-21.757 48.5-48.5-21.757-48.5-48.5-48.5zm0 77c-15.715 0-28.5-12.785-28.5-28.5s12.785-28.5 28.5-28.5 28.5 12.785 28.5 28.5-12.785 28.5-28.5 28.5z"/><circle cx="256" cy="502" r="10"/><path d="m509.421 148.798-131.4-145.5c-1.896-2.1-4.592-3.298-7.421-3.298h-229.2c-2.829 0-5.525 1.198-7.421 3.298l-131.4 145.5c-1.66 1.837-2.579 4.226-2.579 6.702v201c0 2.476.919 4.865 2.579 6.702l131.4 145.5c1.896 2.1 4.592 3.298 7.421 3.298h69.599c5.523 0 10-4.477 10-10s-4.477-10-10-10h-65.156l-125.843-139.347v-193.306l125.843-139.347h220.313l125.844 139.347v193.306l-125.843 139.347h-65.157c-5.523 0-10 4.477-10 10s4.477 10 10 10h69.6c2.829 0 5.525-1.198 7.421-3.298l131.4-145.5c1.66-1.837 2.579-4.226 2.579-6.702v-201c0-2.476-.919-4.865-2.579-6.702z"/></g></g></svg>