<svg xmlns="http://www.w3.org/2000/svg" viewBox="0 0 420.57 178.89"><defs><style>.cls-1{fill:none;stroke:#000;stroke-miterlimit:10;stroke-width:9px;}</style></defs><title>TwoNotes-4</title><g id="Layer_1" data-name="Layer 1"><path d="M256.22,193.6H234.9v-7.7h51.89v7.7H265.37V256h-9.15Z" transform="translate(-234.9 -115)"/><path d="M293.76,205.66l6.66,25.59c1.45,5.61,2.81,10.81,3.74,16h.31c1.15-5.09,2.81-10.5,4.48-15.91l8.21-25.69h7.7l7.8,25.17c1.87,6,3.33,11.34,4.47,16.43h.31a151.65,151.65,0,0,1,3.85-16.32l7.18-25.28h9L341.29,256H333l-7.7-24a170.8,170.8,0,0,1-4.47-16.54h-.21A147.06,147.06,0,0,1,316,232.08L307.91,256h-8.33L284.4,205.66Z" transform="translate(-234.9 -115)"/><path d="M411.18,230.42c0,18.61-12.9,26.72-25.07,26.72-13.62,0-24.13-10-24.13-25.89,0-16.85,11-26.73,25-26.73C401.4,204.52,411.18,215,411.18,230.42Zm-39.94.52c0,11,6.34,19.34,15.29,19.34,8.74,0,15.29-8.22,15.29-19.55,0-8.53-4.27-19.35-15.08-19.35S371.24,221.37,371.24,230.94Z" transform="translate(-234.9 -115)"/><ellipse cx="151.1" cy="116" rx="18" ry="20"/><ellipse cx="259.1" cy="152.06" rx="18" ry="20"/></g><g id="Layer_2" data-name="Layer 2"><path d="M419.59,256c0-5.2-.1-9.47-.41-13.63h8.11l.52,8.32H428a18.51,18.51,0,0,1,16.64-9.46c7,0,17.78,4.16,17.78,21.42v30.06h-9.15v-29c0-8.11-3-14.87-11.65-14.87a13.44,13.44,0,0,0-12.9,13.62v30.27h-9.15Z" transform="translate(-234.9 -115)"/><path d="M518.6,267.17c0,18.61-12.89,26.72-25.06,26.72-13.63,0-24.13-10-24.13-25.89,0-16.85,11-26.73,25-26.73C508.82,241.27,518.6,251.77,518.6,267.17Zm-39.94.52c0,11,6.35,19.34,15.29,19.34,8.74,0,15.29-8.22,15.29-19.55,0-8.53-4.26-19.35-15.08-19.35S478.66,258.12,478.66,267.69Z" transform="translate(-234.9 -115)"/><path d="M544.7,228v14.45h13.11v7H544.7v27.15c0,6.24,1.77,9.77,6.87,9.77a20.43,20.43,0,0,0,5.3-.62l.42,6.86a22.37,22.37,0,0,1-8.11,1.25c-4.27,0-7.7-1.35-9.89-3.85-2.59-2.7-3.53-7.17-3.53-13.1V249.38H528v-7h7.8V230.35Z" transform="translate(-234.9 -115)"/><path d="M576.11,269.25c.21,12.37,8.11,17.47,17.27,17.47a33.16,33.16,0,0,0,13.93-2.6l1.56,6.55c-3.22,1.46-8.73,3.12-16.74,3.12-15.5,0-24.75-10.19-24.75-25.38s8.94-27.14,23.6-27.14c16.44,0,20.81,14.45,20.81,23.71a33.26,33.26,0,0,1-.32,4.27Zm26.83-6.56c.11-5.82-2.39-14.87-12.68-14.87-9.26,0-13.32,8.53-14,14.87Z" transform="translate(-234.9 -115)"/><path d="M624.78,283.39A24,24,0,0,0,636.85,287c6.65,0,9.77-3.33,9.77-7.49,0-4.37-2.6-6.76-9.36-9.25-9-3.23-13.31-8.22-13.31-14.25,0-8.12,6.55-14.77,17.37-14.77a25.1,25.1,0,0,1,12.38,3.12L651.41,251a19.69,19.69,0,0,0-10.3-2.91c-5.41,0-8.42,3.12-8.42,6.87,0,4.16,3,6,9.56,8.53,8.74,3.32,13.21,7.69,13.21,15.18,0,8.84-6.86,15.08-18.82,15.08a28.75,28.75,0,0,1-14.15-3.43Z" transform="translate(-234.9 -115)"/></g><g id="Layer_3" data-name="Layer 3"><line class="cls-1" x1="171.77" y1="114.04" x2="171.77" y2="32.54"/><line class="cls-1" x1="279.29" y1="152.06" x2="279.29" y2="69.56"/><polygon points="283.79 73 283.79 41.71 167.26 0 167.26 35.08 283.79 73"/></g></svg>